<svg width="512" height="512" viewBox="0 0 512 512" fill="none" xmlns="http://www.w3.org/2000/svg">
  <defs>
    <linearGradient id="bg" x1="96" y1="64" x2="416" y2="448" gradientUnits="userSpaceOnUse">
      <stop stop-color="#F8F4EA"/>
      <stop offset="1" stop-color="#EEF4E7"/>
    </linearGradient>
    <linearGradient id="frame" x1="132" y1="124" x2="380" y2="388" gradientUnits="userSpaceOnUse">
      <stop stop-color="#D8E6D5"/>
      <stop offset="1" stop-color="#B8D7C1"/>
    </linearGradient>
    <filter id="shadow" x="112" y="104" width="288" height="304" filterUnits="userSpaceOnUse" color-interpolation-filters="sRGB">
      <feFlood flood-opacity="0" result="BackgroundImageFix"/>
      <feColorMatrix in="SourceAlpha" type="matrix" values="0 0 0 0 0 0 0 0 0 0 0 0 0 0 0 0 0 0 127 0" result="hardAlpha"/>
      <feOffset dy="14"/>
      <feGaussianBlur stdDeviation="16"/>
      <feComposite in2="hardAlpha" operator="out"/>
      <feColorMatrix type="matrix" values="0 0 0 0 0.08 0 0 0 0 0.16 0 0 0 0 0.12 0 0 0 0.18 0"/>
      <feBlend mode="normal" in2="BackgroundImageFix" result="effect1_dropShadow_1_1"/>
      <feBlend mode="normal" in="SourceGraphic" in2="effect1_dropShadow_1_1" result="shape"/>
    </filter>
  </defs>

  <rect width="512" height="512" rx="124" fill="url(#bg)"/>
  <rect x="104" y="104" width="304" height="304" rx="92" fill="#FFFFFF" fill-opacity="0.55"/>

  <g filter="url(#shadow)">
    <rect x="136" y="136" width="240" height="240" rx="74" fill="#FFFFFF"/>
    <rect x="144" y="144" width="224" height="224" rx="66" fill="none" stroke="url(#frame)" stroke-width="10"/>
    <path d="M238 188V324" stroke="#1D3D33" stroke-width="22" stroke-linecap="round"/>
    <path d="M274 196H308C326.778 196 342 211.222 342 230V230C342 248.778 326.778 264 308 264H274" stroke="#1D3D33" stroke-width="22" stroke-linecap="round" stroke-linejoin="round"/>
    <path d="M274 264H310C328.778 264 344 279.222 344 298V298C344 316.778 328.778 332 310 332H274" stroke="#1D3D33" stroke-width="22" stroke-linecap="round" stroke-linejoin="round"/>
  </g>
</svg>
