<svg width="512" height="512" viewBox="0 0 512 512" fill="none" xmlns="http://www.w3.org/2000/svg">
  <defs>
    <linearGradient id="bg" x1="76" y1="64" x2="438" y2="448" gradientUnits="userSpaceOnUse">
      <stop stop-color="#173127"/>
      <stop offset="1" stop-color="#235040"/>
    </linearGradient>
    <linearGradient id="ring" x1="134" y1="128" x2="378" y2="384" gradientUnits="userSpaceOnUse">
      <stop stop-color="#D7EE9B"/>
      <stop offset="0.55" stop-color="#83C7AD"/>
      <stop offset="1" stop-color="#F4C47D"/>
    </linearGradient>
    <linearGradient id="cardA" x1="174" y1="188" x2="294" y2="306" gradientUnits="userSpaceOnUse">
      <stop stop-color="#FFF6E7"/>
      <stop offset="1" stop-color="#F8E4BF"/>
    </linearGradient>
    <linearGradient id="cardB" x1="218" y1="220" x2="338" y2="336" gradientUnits="userSpaceOnUse">
      <stop stop-color="#E5F6EE"/>
      <stop offset="1" stop-color="#C7E8D7"/>
    </linearGradient>
    <filter id="shadow" x="104" y="108" width="304" height="304" filterUnits="userSpaceOnUse" color-interpolation-filters="sRGB">
      <feFlood flood-opacity="0" result="BackgroundImageFix"/>
      <feColorMatrix in="SourceAlpha" type="matrix" values="0 0 0 0 0 0 0 0 0 0 0 0 0 0 0 0 0 0 127 0" result="hardAlpha"/>
      <feOffset dy="16"/>
      <feGaussianBlur stdDeviation="18"/>
      <feComposite in2="hardAlpha" operator="out"/>
      <feColorMatrix type="matrix" values="0 0 0 0 0.03 0 0 0 0 0.1 0 0 0 0 0.08 0 0 0 0.3 0"/>
      <feBlend mode="normal" in2="BackgroundImageFix" result="effect1_dropShadow_1_1"/>
      <feBlend mode="normal" in="SourceGraphic" in2="effect1_dropShadow_1_1" result="shape"/>
    </filter>
  </defs>
  <rect width="512" height="512" rx="124" fill="url(#bg)"/>
  <circle cx="160" cy="132" r="78" fill="#FFFFFF" fill-opacity="0.05"/>
  <circle cx="398" cy="398" r="92" fill="#FFFFFF" fill-opacity="0.05"/>
  <g filter="url(#shadow)">
    <path d="M374 218C374 160.562 327.438 114 270 114C240.468 114 213.809 126.309 194.839 146.1" stroke="url(#ring)" stroke-width="34" stroke-linecap="round"/>
    <path d="M362.57 154.737L388.224 213.145L325.8 225.745" fill="#F4C47D"/>
    <path d="M138 294C138 351.438 184.562 398 242 398C271.532 398 298.191 385.691 317.161 365.9" stroke="url(#ring)" stroke-width="34" stroke-linecap="round"/>
    <path d="M149.43 357.263L123.776 298.855L186.2 286.255" fill="#83C7AD"/>
    <rect x="170" y="180" width="128" height="150" rx="30" transform="rotate(-8 170 180)" fill="url(#cardA)"/>
    <rect x="218" y="208" width="128" height="150" rx="30" transform="rotate(8 218 208)" fill="url(#cardB)"/>
    <path d="M223 246H267" stroke="#D68A4F" stroke-width="18" stroke-linecap="round"/>
    <path d="M251 218L279 246L251 274" stroke="#D68A4F" stroke-width="18" stroke-linecap="round" stroke-linejoin="round"/>
    <path d="M289 286H245" stroke="#2B6A55" stroke-width="18" stroke-linecap="round"/>
    <path d="M261 258L233 286L261 314" stroke="#2B6A55" stroke-width="18" stroke-linecap="round" stroke-linejoin="round"/>
  </g>
</svg>
